<svg xmlns="http://www.w3.org/2000/svg" width="48" height="48"><g fill="none" fill-rule="evenodd"><path fill="#93F4FE" fill-opacity=".64" d="M0 0h24v48H0z"/><path fill="#FFCF7B" fill-opacity=".64" d="M28 0h20v20H28z"/><path fill="#7C85E1" d="M14 9v4h20V9a1 1 0 0 0-1-1H15a1 1 0 0 0-1 1z"/><path fill="#535FD7" d="M39 15H9a1 1 0 0 0-1 1v16a1 1 0 0 0 1 1h3V23h24v10h3a1 1 0 0 0 1-1V16a1 1 0 0 0-1-1zM20 40v-6h-6z"/><path fill="#7C85E1" d="M14 25v7h7a1 1 0 0 1 1 1v7h11a1 1 0 0 0 1-1V25H14z"/></g></svg>