<svg xmlns="http://www.w3.org/2000/svg" width="32" height="32"><defs><linearGradient id="a" x1="20.313%" x2="79.211%" y1="83.13%" y2="18.665%"><stop offset="0%" stop-color="#93F4FE"/><stop offset="100%" stop-color="#535FD7"/></linearGradient><linearGradient id="b" x1="50%" x2="77.135%" y1="0%" y2="77.109%"><stop offset="0%" stop-color="#FFF" stop-opacity=".48"/><stop offset="100%" stop-color="#FFF" stop-opacity="0"/></linearGradient></defs><g fill="none" fill-rule="evenodd"><path fill="url(#a)" d="M16 0C7.163 0 0 7.163 0 16s7.163 16 16 16 16-7.163 16-16C31.99 7.168 24.832.01 16 0z"/><path fill="url(#b)" d="M29.012 25.313A11.98 11.98 0 0 1 25 26c-6.627 0-12-5.373-12-12 0-6.235 4.756-11.36 10.838-11.944C28.705 4.8 31.993 10.016 32 16c0 3.474-1.107 6.69-2.988 9.313z"/></g></svg>